<?xml version="1.0" encoding="UTF-8"?>
<svg width="512" height="512" viewBox="0 0 512 512" fill="none" xmlns="http://www.w3.org/2000/svg">
  <!-- Background Circle with Gradient -->
  <circle cx="256" cy="256" r="248" fill="url(#paint0_linear)" stroke="url(#paint1_linear)" stroke-width="16"/>
  
  <!-- Stylized CV Letters -->
  <path d="M175 160C175 154.477 179.477 150 185 150H225C266.421 150 300 183.579 300 225C300 266.421 266.421 300 225 300H185C179.477 300 175 295.523 175 290V160Z" fill="white"/>
  <path d="M205 180V270H225C250.405 270 271 249.405 271 224C271 198.595 250.405 178 225 178H205Z" fill="url(#paint2_linear)"/>
  
  <path d="M320 150L370 290M370 150L320 290" stroke="white" stroke-width="30" stroke-linecap="round" stroke-linejoin="round"/>
  
  <!-- Gradient Definitions -->
  <defs>
    <linearGradient id="paint0_linear" x1="0" y1="0" x2="512" y2="512" gradientUnits="userSpaceOnUse">
      <stop offset="0%" stop-color="#3B82F6"/>
      <stop offset="100%" stop-color="#4F46E5"/>
    </linearGradient>
    <linearGradient id="paint1_linear" x1="256" y1="0" x2="256" y2="512" gradientUnits="userSpaceOnUse">
      <stop offset="0%" stop-color="#93C5FD"/>
      <stop offset="100%" stop-color="#818CF8"/>
    </linearGradient>
    <linearGradient id="paint2_linear" x1="205" y1="224" x2="271" y2="224" gradientUnits="userSpaceOnUse">
      <stop offset="0%" stop-color="#3B82F6"/>
      <stop offset="100%" stop-color="#4F46E5"/>
    </linearGradient>
  </defs>
</svg>
